<?xml version="1.0" standalone="no"?>
<!DOCTYPE svg PUBLIC "-//W3C//DTD SVG 20010904//EN"
 "http://www.w3.org/TR/2001/REC-SVG-20010904/DTD/svg10.dtd">
<svg version="1.0" xmlns="http://www.w3.org/2000/svg"
 width="582.000000pt" height="429.000000pt" viewBox="0 0 582.000000 429.000000"
 preserveAspectRatio="xMidYMid meet">

<g transform="translate(0.000000,429.000000) scale(0.100000,-0.100000)"
fill="#000000" stroke="none">
<path d="M2783 3917 c-3 -5 -16 -6 -30 -2 -14 3 -22 2 -19 -3 2 -4 -17 -9 -45
-9 -27 0 -55 -6 -63 -12 -7 -6 -22 -8 -32 -5 -18 6 -18 6 -1 -8 18 -14 18 -14
0 -29 -16 -13 -17 -12 -5 2 10 14 9 17 -8 22 -11 3 -23 1 -26 -4 -3 -5 -9 -7
-14 -4 -13 8 -39 -5 -34 -18 6 -19 -10 -36 -36 -40 -24 -4 -42 -37 -21 -37 6
0 11 -5 11 -11 0 -6 -16 -2 -36 10 -22 13 -45 19 -62 16 -27 -5 -26 -5 3 9 23
12 26 15 10 15 -23 0 -49 -17 -58 -39 -4 -11 -6 -11 -6 -2 -1 10 -5 10 -17 -2
-8 -9 -19 -14 -24 -11 -4 3 -10 -1 -13 -9 -3 -8 1 -17 9 -20 8 -3 14 -12 14
-21 0 -19 -36 -20 -44 0 -3 8 -10 15 -16 15 -6 0 -8 -6 -4 -12 6 -10 5 -10 -8
-1 -18 15 -32 5 -17 -13 6 -7 17 -10 25 -7 10 3 12 0 8 -10 -3 -10 2 -20 15
-27 24 -13 28 -30 6 -30 -8 0 -15 7 -15 14 0 13 -4 13 -35 0 -47 -19 -61 -18
-44 3 8 9 9 14 3 10 -7 -4 -15 1 -19 11 -6 16 -7 16 -19 0 -7 -10 -17 -14 -21
-10 -5 4 -5 1 0 -7 7 -12 10 -11 22 4 14 20 18 9 4 -14 -5 -7 -17 -11 -27 -7
-13 4 -23 -1 -31 -14 -11 -16 -10 -18 4 -13 11 4 14 2 11 -8 -6 -17 -44 -18
-40 0 1 7 -2 9 -8 6 -15 -9 12 -50 33 -50 9 0 18 -3 22 -6 8 -9 -111 -32 -125
-24 -6 4 -18 1 -26 -6 -13 -10 -12 -14 2 -31 17 -18 18 -18 36 2 11 11 24 18
29 14 6 -4 0 -18 -16 -34 -20 -21 -25 -34 -20 -52 6 -22 6 -22 -9 -4 -9 11
-16 27 -16 36 0 8 -10 21 -22 29 -13 7 -20 10 -16 6 4 -4 -5 -19 -20 -33 -15
-13 -21 -21 -14 -18 17 10 15 -10 -4 -28 -16 -17 -12 -20 20 -16 11 1 16 -3
14 -12 -3 -7 -13 -12 -21 -12 -13 1 -15 -4 -11 -20 4 -16 -2 -30 -20 -47 -14
-13 -26 -33 -26 -44 0 -17 2 -17 10 -5 5 8 10 10 10 4 0 -6 -7 -17 -15 -24
-10 -9 -15 -9 -15 -1 0 17 -28 13 -38 -5 -8 -14 -10 -13 -15 5 -3 11 -1 23 4
26 4 3 6 12 3 20 -4 8 -11 12 -16 9 -6 -4 -5 -10 3 -15 11 -7 11 -9 -2 -9 -21
0 -44 -70 -26 -83 8 -6 4 -7 -10 -4 -14 3 -27 -2 -35 -12 -11 -14 -11 -14 3
-3 14 10 20 10 32 -2 18 -18 11 -56 -9 -56 -9 0 -13 8 -11 23 2 12 2 16 0 9
-4 -11 -8 -11 -21 0 -15 11 -15 11 -4 -4 9 -11 10 -18 2 -23 -5 -3 -10 0 -11
7 0 7 -5 2 -11 -12 -6 -14 -10 -29 -9 -34 1 -5 -6 -18 -16 -29 -10 -11 -12
-17 -5 -13 8 5 12 0 12 -13 0 -12 6 -21 14 -21 9 0 12 7 9 20 -3 11 -9 20 -14
20 -5 0 -3 10 6 23 8 13 12 27 8 32 -5 4 -3 5 4 1 6 -3 10 -15 8 -26 -2 -11 0
-20 5 -20 8 0 6 -26 -10 -105 -7 -36 -8 -37 -9 -9 -1 16 -10 40 -20 51 -11 12
-18 24 -15 27 2 3 1 3 -3 0 -5 -3 -9 -10 -9 -15 -1 -5 -3 -11 -4 -14 -1 -3 -3
-8 -4 -12 -1 -5 -5 -14 -10 -22 -6 -10 -5 -12 2 -7 16 10 15 -7 0 -23 -10 -11
-10 -13 0 -7 6 4 12 3 12 -3 0 -5 -9 -13 -20 -16 -20 -6 -28 -35 -10 -35 6 0
10 6 10 14 0 7 9 16 20 19 13 3 18 11 15 26 -2 12 0 21 6 21 5 0 9 -11 9 -25
0 -14 -4 -25 -10 -25 -5 0 -10 -7 -10 -15 0 -8 -6 -14 -12 -12 -9 1 -12 -8
-10 -28 l4 -30 -21 24 -20 23 6 -36 c3 -21 1 -42 -6 -49 -6 -8 -8 -17 -4 -20
3 -4 1 -7 -6 -7 -7 0 -9 -4 -6 -10 11 -18 26 -10 23 12 -2 15 3 24 15 26 9 2
17 -1 17 -7 0 -6 -4 -11 -10 -11 -5 0 -10 -4 -10 -10 0 -5 7 -10 15 -10 8 0
15 4 15 9 0 5 14 11 30 13 17 3 30 1 30 -4 0 -4 -9 -8 -20 -8 -24 0 -26 -13
-4 -34 10 -11 11 -16 3 -16 -7 0 -10 -2 -8 -5 3 -2 21 0 40 5 18 5 46 12 62
15 15 3 27 10 27 16 0 6 -4 7 -10 4 -5 -3 -19 -1 -31 5 -16 9 -24 9 -33 0 -8
-8 -6 -10 9 -5 20 7 20 6 1 -9 -27 -22 -46 -3 -23 22 9 10 17 26 17 36 0 10 6
16 13 13 6 -2 11 -10 10 -16 -2 -6 2 -11 7 -11 6 0 10 -8 11 -17 0 -11 3 -13
6 -5 2 6 8 10 13 7 4 -3 10 9 12 25 3 17 1 30 -4 30 -4 0 -8 -9 -8 -20 0 -11
-3 -20 -8 -20 -13 0 -15 122 -1 130 8 5 5 10 -9 14 -13 4 -19 13 -15 21 3 8
10 12 16 8 6 -4 8 3 3 21 -5 22 -3 26 14 26 12 0 20 -7 20 -17 0 -15 2 -15 9
-4 5 8 8 23 6 33 -3 11 0 16 7 12 6 -4 8 1 4 14 -8 23 12 62 30 62 7 0 14 9
17 20 3 11 1 18 -4 14 -20 -12 -8 16 13 30 12 9 19 16 14 16 -5 0 -3 6 3 13 6
8 8 17 4 21 -4 4 0 4 10 0 12 -4 20 1 26 17 5 13 10 18 10 12 1 -7 8 -13 17
-13 10 0 14 6 10 15 -3 8 -1 15 5 15 6 0 8 4 4 9 -3 5 -1 12 5 16 5 3 10 17
10 31 0 13 4 24 10 24 5 0 7 -13 4 -30 -8 -37 -2 -38 31 -3 27 29 31 43 15 43
-5 0 -9 -5 -7 -11 1 -6 -5 -14 -13 -16 -12 -4 -12 -3 -2 5 17 12 17 23 2 32
-7 4 -9 13 -5 20 4 7 10 8 14 4 10 -15 45 -40 38 -28 -4 7 0 15 9 18 8 3 12
11 9 17 -4 6 -13 8 -20 5 -7 -2 -21 2 -32 10 -10 9 -12 12 -4 8 10 -5 13 -3 9
8 -4 8 0 15 8 15 7 0 11 -4 8 -9 -11 -18 29 -21 42 -3 8 10 14 14 14 9 0 -6
-6 -16 -12 -23 -11 -10 -10 -12 2 -9 23 5 45 55 31 71 -11 14 -5 27 11 27 5 0
7 -4 4 -9 -4 -5 -2 -11 4 -13 6 -2 4 -15 -5 -32 -14 -25 -13 -27 0 -16 8 7 15
19 15 27 0 8 3 12 8 9 8 -5 42 18 45 31 1 4 5 7 10 5 4 -1 7 2 7 8 0 13 -17
13 -25 -1 -4 -6 -14 -8 -22 -5 -8 3 -11 2 -8 -3 3 -5 1 -12 -5 -16 -5 -3 -10
1 -10 9 0 9 -4 16 -10 16 -5 0 -10 9 -10 20 0 21 16 28 22 10 2 -6 23 -13 46
-15 29 -2 42 0 40 7 -5 14 -38 20 -38 7 0 -6 -4 -7 -10 -4 -18 11 -10 25 15
25 14 0 25 6 25 13 0 8 3 9 8 1 11 -17 52 -24 45 -8 -3 9 1 12 14 9 42 -8 43
12 2 31 -32 14 -44 15 -47 6 -5 -15 -22 -16 -22 -1 0 29 53 52 63 27 6 -17 67
-52 67 -39 0 6 -9 15 -20 21 -17 9 -18 14 -7 30 7 12 23 20 39 20 14 0 28 6
31 13 2 6 8 9 12 4 5 -4 0 -14 -11 -21 -20 -16 -5 -16 29 -1 10 4 24 2 34 -6
13 -11 15 -11 9 -1 -5 9 -3 13 5 11 8 -1 23 -1 34 0 19 2 19 3 3 15 -10 7 -15
16 -11 19 3 4 1 7 -6 7 -7 0 -10 4 -6 10 9 14 34 0 28 -16 -4 -12 0 -13 22 -4
35 13 48 13 39 -2 -4 -6 -3 -8 4 -5 5 4 8 16 5 27 -7 25 22 28 36 3 8 -14 13
-15 33 -5 12 7 15 10 5 7 -10 -3 -27 4 -39 15 l-22 20 30 0 c16 0 40 3 54 6
20 4 22 3 10 -5 -13 -9 -12 -11 5 -12 11 -1 31 -1 45 0 20 1 22 0 10 -9 -12
-9 -10 -10 10 -4 14 3 31 11 38 16 8 7 12 7 12 0 0 -6 40 -10 103 -9 94 0 97
1 32 6 -66 6 -83 16 -62 37 4 4 7 0 7 -9 0 -13 11 -15 68 -13 37 1 73 -2 79
-7 22 -16 71 -16 77 0 5 11 1 13 -17 8 -24 -8 -25 -8 -47 -6 -17 1 36 31 55
31 16 0 29 -35 19 -51 -4 -8 3 -9 24 -4 18 3 33 2 37 -4 9 -16 25 -13 19 3 -3
8 3 19 15 26 19 10 20 9 11 -16 -6 -15 -8 -29 -5 -32 3 -3 5 -1 5 4 0 10 73
10 89 -1 6 -3 11 -13 11 -21 0 -8 5 -14 10 -14 6 0 12 0 15 0 3 0 5 3 6 8 0 4
5 12 10 18 7 8 -1 14 -25 18 -19 4 -37 12 -40 19 -3 9 -7 9 -14 -2 -11 -15
-32 -7 -32 14 0 9 14 13 49 12 37 0 48 -4 44 -14 -3 -7 2 -13 11 -13 14 0 20
-12 17 -32 0 -5 6 -8 14 -8 20 0 55 -36 55 -57 1 -16 2 -16 16 2 13 16 15 17
12 3 -2 -9 2 -17 7 -17 6 0 9 6 8 12 -4 16 46 20 63 6 7 -6 19 -7 25 -3 9 5 7
10 -7 15 -17 7 -18 8 -1 8 10 1 25 7 32 14 51 45 52 45 51 10 -1 -21 -6 -27
-18 -25 -13 2 -16 -2 -11 -14 4 -12 3 -15 -5 -10 -7 4 -15 1 -18 -8 -3 -9 -14
-16 -24 -16 -10 0 -20 -8 -22 -17 -3 -15 -6 -14 -17 6 -8 14 -9 21 -2 17 6 -4
11 0 11 8 0 9 -9 16 -21 16 -11 0 -17 -4 -14 -10 3 -5 2 -10 -3 -10 -6 0 -12
-7 -16 -15 -3 -8 -2 -14 2 -13 4 1 17 -3 29 -10 19 -10 27 -10 47 3 23 15 25
15 36 -4 6 -12 7 -21 1 -21 -5 0 -11 6 -14 13 -3 6 -4 2 -4 -10 1 -17 5 -20
18 -12 11 6 21 4 29 -5 9 -12 7 -14 -12 -10 -21 4 -21 4 -3 -5 12 -5 25 -5 33
1 18 15 15 22 -18 41 -16 10 -30 22 -30 28 0 15 40 10 46 -6 4 -8 11 -12 16
-9 7 5 9 -4 6 -24 -3 -20 0 -33 9 -36 7 -3 13 -13 13 -22 0 -8 -6 -14 -12 -11
-7 2 -12 9 -11 15 2 6 -4 9 -12 5 -23 -8 1 -33 30 -31 16 2 22 8 20 19 -4 22
18 19 51 -8 15 -12 21 -23 15 -27 -5 -4 -7 -14 -4 -24 6 -15 5 -15 -10 -3 -11
9 -17 10 -17 2 0 -6 6 -11 13 -11 8 0 7 -4 -3 -10 -9 -6 -10 -10 -3 -10 6 0
15 4 18 10 8 13 54 9 49 -5 -1 -5 11 -21 27 -34 26 -20 33 -22 41 -10 8 12 9
12 5 -1 -2 -8 0 -26 5 -40 5 -13 6 -21 2 -17 -4 4 -14 1 -23 -6 -14 -10 -14
-10 -4 3 6 8 13 18 15 23 4 10 -61 49 -72 42 -6 -3 -7 0 -4 8 6 17 -26 32 -38
17 -4 -5 -5 -8 -2 -5 4 2 15 -7 26 -20 11 -14 24 -23 29 -20 8 6 13 -8 10 -27
0 -5 4 -7 11 -5 7 1 12 -4 13 -12 0 -19 55 -24 62 -5 3 8 13 14 22 14 12 0 13
-2 3 -9 -12 -7 -11 -14 2 -40 21 -40 29 -40 21 2 -7 30 -6 31 9 12 19 -25 20
-36 2 -70 -9 -17 -16 -22 -19 -13 -4 11 -6 11 -6 0 -1 -7 -6 -10 -13 -6 -7 4
-8 3 -4 -5 4 -6 12 -8 18 -5 7 5 9 0 6 -14 -4 -12 -2 -20 3 -16 5 3 9 12 9 20
0 8 5 12 11 9 6 -4 8 -13 5 -21 -3 -8 -1 -14 3 -14 5 0 11 6 14 13 2 6 13 -6
25 -28 35 -68 71 -77 85 -20 3 13 5 9 6 -12 0 -18 -4 -33 -10 -33 -6 0 -9 -9
-6 -20 3 -13 0 -20 -9 -20 -8 0 -14 8 -14 18 0 23 -56 57 -66 41 -4 -7 -3 -9
2 -6 16 10 30 -5 53 -56 12 -26 26 -45 30 -42 5 3 7 -4 4 -15 -8 -31 -21 -24
-34 20 -7 22 -18 40 -26 40 -8 0 -11 5 -8 10 3 6 1 10 -4 10 -14 0 -14 -2 2
-34 8 -14 17 -23 20 -19 4 3 7 -1 7 -11 0 -10 -5 -14 -12 -10 -7 4 -8 3 -4 -5
4 -6 11 -9 15 -7 4 3 16 -9 27 -27 l19 -32 5 34 c3 19 11 36 19 39 10 3 12 -3
6 -29 -4 -25 -3 -30 4 -19 13 18 13 3 1 -25 -5 -11 -9 -15 -9 -8 -1 16 -39 12
-46 -5 -3 -7 0 -10 6 -7 6 4 13 -2 16 -14 3 -12 9 -21 14 -21 5 0 6 6 3 13 -3
8 2 14 11 14 21 0 19 -13 -4 -29 -25 -18 -24 -68 2 -68 9 0 17 -4 17 -10 0 -5
4 -10 10 -10 5 0 8 6 6 13 -1 6 -1 9 1 5 3 -5 16 -8 29 -8 17 0 24 6 24 19 0
11 4 22 8 25 5 3 8 -11 6 -32 -2 -30 3 -41 24 -59 l27 -22 -28 -1 c-17 0 -26
4 -22 10 11 18 -16 41 -38 34 -13 -4 -17 -2 -13 5 4 6 3 11 -3 11 -20 0 -21
-19 -1 -25 11 -3 20 -12 20 -20 0 -16 22 -25 64 -25 46 0 50 9 16 43 -31 32
-37 47 -20 47 6 0 10 -8 10 -17 1 -17 2 -17 15 1 18 23 38 11 32 -20 -2 -14
-1 -27 3 -29 10 -6 19 42 9 52 -4 4 -9 21 -11 37 -2 16 -9 32 -17 34 -10 3
-12 -1 -8 -17 3 -11 0 -24 -5 -28 -8 -4 -9 8 -4 38 4 24 11 46 16 47 6 2 10
11 9 20 0 12 -2 13 -6 4 -4 -10 -8 -9 -19 5 -12 17 -13 17 -8 -2 3 -11 1 -31
-5 -45 -8 -22 -10 -18 -10 26 -1 34 -6 56 -17 65 -14 12 -15 8 -9 -37 5 -36 4
-45 -4 -34 -13 18 -13 97 -1 125 5 11 9 14 9 8 1 -7 6 -13 12 -13 5 0 7 5 4
10 -3 6 0 10 7 10 10 0 10 2 -1 9 -8 5 -10 14 -5 22 6 11 5 12 -7 2 -13 -10
-16 -10 -16 2 0 8 5 15 11 15 6 0 3 5 -7 11 -14 8 -21 7 -31 -7 -12 -16 -13
-15 -19 6 -3 13 1 33 10 47 9 13 14 26 11 28 -8 8 -48 -31 -49 -46 0 -8 -6 -3
-12 10 -9 19 -9 25 1 29 6 2 12 11 12 19 0 12 3 13 13 4 10 -8 14 -7 14 4 0 9
-10 15 -24 15 -16 0 -23 6 -23 20 0 24 4 25 24 4 23 -23 19 -1 -4 24 -11 12
-20 25 -20 30 0 5 -7 9 -15 9 -9 0 -11 -4 -6 -11 5 -6 9 -35 8 -64 0 -32 -4
-47 -9 -38 -4 8 -7 25 -6 38 1 12 -2 38 -6 56 -6 27 -5 32 11 33 12 0 9 4 -10
11 -15 5 -25 14 -21 19 3 5 9 7 14 4 5 -3 -3 12 -17 35 -15 22 -31 40 -35 40
-5 0 -7 4 -4 9 3 4 -4 17 -17 27 -18 16 -19 16 -8 2 19 -26 -1 -22 -23 3 -15
18 -15 23 -5 30 11 7 10 9 -3 9 -11 0 -18 -8 -18 -19 0 -22 -16 -36 -24 -22
-3 5 -7 21 -8 35 -1 14 -5 26 -8 26 -7 0 -24 -32 -33 -60 -3 -8 -6 -3 -6 12
-1 16 8 36 21 48 19 18 20 22 8 30 -8 5 -24 10 -35 10 -16 0 -17 2 -5 9 8 6
18 7 22 5 4 -3 5 1 3 8 -8 21 -53 21 -51 0 1 -11 -7 -18 -23 -20 -14 -2 -21 0
-17 7 4 5 14 8 24 5 14 -5 14 -4 3 4 -12 8 -12 13 -2 25 7 9 8 18 2 21 -5 3
-11 1 -13 -5 -5 -16 -58 18 -58 36 0 7 -3 15 -7 18 -5 2 -3 2 4 1 7 -2 15 1
17 5 5 7 -35 8 -41 1 -8 -7 -29 -4 -35 5 -11 15 -10 27 2 20 6 -3 10 -1 10 5
0 7 6 8 19 0 33 -17 38 -11 7 9 -21 14 -35 17 -47 11 -12 -7 -29 -5 -54 6 -20
8 -34 11 -32 7 8 -13 -9 -36 -21 -29 -12 7 -5 37 12 49 7 5 6 10 -4 17 -12 8
-13 12 -2 19 11 7 11 9 -2 14 -10 4 -16 1 -16 -9 0 -8 -5 -12 -10 -9 -6 4 -8
10 -5 15 3 5 0 12 -6 16 -7 4 -9 3 -5 -4 9 -14 -21 -42 -45 -42 -11 0 -17 5
-14 10 3 6 14 10 23 10 11 0 17 8 17 25 0 14 -3 26 -7 26 -20 3 -24 5 -35 12
-7 5 -13 5 -13 2 0 -3 -9 0 -20 8 -20 14 -70 12 -70 -3 0 -14 44 -24 48 -11 6
17 22 13 22 -5 0 -8 4 -13 9 -9 5 3 13 1 16 -5 5 -8 12 -7 22 2 15 12 15 11 2
-9 -8 -13 -20 -23 -27 -23 -7 0 -15 -7 -19 -16 -4 -12 -8 -13 -14 -3 -4 8 -3
20 4 28 10 12 9 14 -5 8 -9 -3 -30 -1 -47 6 -33 12 -42 42 -19 65 9 9 9 12 0
12 -7 0 -12 -5 -12 -11 0 -5 -5 -7 -10 -4 -6 4 -7 12 -3 18 5 8 2 8 -9 -1 -8
-7 -23 -10 -32 -6 -9 3 -16 2 -16 -2 0 -5 -23 -10 -52 -12 -45 -3 -50 -1 -38
13 8 9 21 13 32 9 10 -3 25 0 33 6 8 7 15 8 15 3 0 -5 9 -9 20 -9 12 0 16 4
10 10 -5 5 -25 9 -45 9 -19 0 -35 4 -35 9 0 4 -5 8 -11 8 -5 0 -7 -4 -4 -10 3
-5 -3 -10 -13 -10 -11 0 -22 6 -25 14 -3 8 -14 15 -24 15 -10 0 -31 3 -48 6
-22 5 -26 4 -15 -4 11 -7 7 -10 -18 -9 -26 1 -29 3 -16 13 13 9 9 11 -20 12
-20 1 -33 -3 -30 -8 9 -15 -22 -39 -50 -39 -14 0 -26 5 -26 10 0 6 14 10 30
10 20 0 30 5 30 15 0 13 -11 15 -62 13 -59 -3 -63 -4 -60 -26 3 -18 -1 -23
-15 -22 -35 4 -54 0 -48 -10 4 -6 -19 -9 -60 -8 -75 2 -86 23 -12 23 25 0 49
4 53 8 4 4 0 7 -9 7 -9 0 -17 4 -17 9 0 5 20 7 45 5 25 -3 45 -1 45 4 0 11
-90 10 -97 -1z m412 -49 c7 -7 -5 -9 -39 -4 -27 3 -57 6 -67 6 -11 0 -19 5
-19 11 0 14 110 2 125 -13z m-515 2 c0 -5 -4 -10 -9 -10 -6 0 -13 5 -16 10 -3
6 1 10 9 10 9 0 16 -4 16 -10z m357 -6 c-3 -3 -12 -4 -19 -1 -8 3 -5 6 6 6 11
1 17 -2 13 -5z m-473 -15 c3 -3 -4 -5 -14 -6 -11 -1 -22 2 -25 8 -6 9 30 7 39
-2z m579 -6 c-7 -2 -19 -2 -25 0 -7 3 -2 5 12 5 14 0 19 -2 13 -5z m-640 -51
c-6 -4 -13 -21 -15 -37 -3 -29 -4 -29 -9 8 -4 32 -2 37 16 37 12 0 16 -3 8 -8z
m574 -24 c-3 -8 -6 -5 -6 6 -1 11 2 17 5 13 3 -3 4 -12 1 -19z m-699 -5 c9 -3
20 -7 24 -7 24 -3 16 -16 -10 -16 -18 0 -32 5 -32 11 0 8 -5 7 -15 -1 -18 -15
-28 -9 -19 13 5 15 13 15 52 0z m-68 -18 c0 -8 -7 -15 -15 -15 -8 0 -15 5 -15
11 0 5 5 7 10 4 6 -3 10 -1 10 4 0 6 2 11 5 11 3 0 5 -7 5 -15z m1115 5 c3 -5
2 -10 -4 -10 -5 0 -13 5 -16 10 -3 6 -2 10 4 10 5 0 13 -4 16 -10z m-572 -14
c4 -11 0 -13 -15 -11 -11 3 -29 0 -38 -5 -15 -8 -17 -6 -13 10 6 24 58 28 66
6z m-383 -16 c0 -5 -2 -10 -4 -10 -3 0 -8 5 -11 10 -3 6 -1 10 4 10 6 0 11 -4
11 -10z m109 -17 c-1 -22 -3 -24 -6 -7 -4 20 -7 21 -39 11 -35 -11 -51 -6 -39
12 3 6 24 11 46 11 36 0 39 -2 38 -27z m181 22 c0 -7 -30 -13 -34 -7 -3 4 4 9
15 9 10 1 19 0 19 -2z m437 -1 c-3 -3 -12 -4 -19 -1 -8 3 -5 6 6 6 11 1 17 -2
13 -5z m247 -3 c3 -5 -1 -14 -9 -21 -12 -10 -15 -10 -15 3 0 8 -6 18 -12 20
-7 3 -3 6 9 6 12 1 24 -3 27 -8z m-973 -56 c0 -6 -10 -12 -22 -13 -19 -3 -20
-2 -8 12 15 16 31 17 30 1z m-186 -5 c3 -5 -3 -10 -14 -10 -12 0 -21 5 -21 10
0 6 6 10 14 10 8 0 18 -4 21 -10z m1422 -19 c0 -11 -6 -17 -14 -14 -18 7 -17
33 1 33 8 0 14 -8 13 -19z m-1601 -79 c-10 -11 -16 -12 -16 -4 0 7 5 12 10 12
6 0 9 3 9 8 -1 4 0 14 1 22 2 11 4 10 7 -4 3 -10 -2 -26 -11 -34z m1718 -20
c2 -4 -4 -13 -14 -19 -17 -11 -20 -5 -11 25 2 5 20 1 25 -6z m-1872 -39 c-10
-4 -10 -8 0 -21 12 -15 11 -16 -4 -3 -19 14 -15 32 5 30 8 0 8 -2 -1 -6z
m1785 1 c-3 -3 -12 -4 -19 -1 -8 3 -5 6 6 6 11 1 17 -2 13 -5z m-1818 -90 c-6
-8 -19 -14 -28 -14 -14 0 -14 2 -1 10 8 5 11 10 7 10 -5 0 -6 4 -2 10 3 5 12
7 21 3 11 -4 12 -9 3 -19z m91 5 c0 -11 -4 -17 -10 -14 -5 3 -10 13 -10 21 0
8 5 14 10 14 6 0 10 -9 10 -21z m1880 -33 c0 -8 -4 -17 -9 -21 -12 -7 -24 12
-16 25 9 15 25 12 25 -4z m196 -51 c12 -38 12 -45 1 -39 -8 5 -7 2 1 -7 17
-18 15 -39 -3 -39 -19 0 -21 56 -2 63 7 3 6 6 -5 6 -9 1 -20 -8 -23 -19 -3
-11 -10 -20 -15 -20 -4 0 -3 11 3 25 7 14 15 25 20 25 4 0 7 5 7 12 0 6 -7 4
-18 -5 -10 -10 -22 -17 -25 -17 -8 0 -9 44 -2 52 11 10 54 -17 61 -37z m-2191
-34 c-6 -21 -25 -29 -25 -11 0 6 5 10 10 10 6 0 10 8 10 17 0 9 3 14 6 10 3
-3 3 -15 -1 -26z m65 -32 c0 -16 -4 -19 -20 -14 -15 5 -23 -1 -35 -27 l-15
-33 6 30 c3 17 10 32 15 33 5 2 9 10 9 18 0 8 9 14 20 14 14 0 20 -7 20 -21z
m2060 5 c0 -8 -4 -12 -10 -9 -5 3 -10 10 -10 16 0 5 5 9 10 9 6 0 10 -7 10
-16z m80 -43 c0 -5 3 -17 7 -27 9 -23 -13 -10 -27 17 -9 15 -7 19 5 19 8 0 15
-4 15 -9z m-2346 -37 c8 -21 3 -26 -17 -18 -9 3 -13 12 -10 20 7 19 19 18 27
-2z m46 -24 c-18 -11 -24 -6 -16 16 5 14 9 15 19 5 9 -9 9 -14 -3 -21z m30
-20 c-13 -10 -20 -22 -16 -29 4 -6 1 -11 -8 -11 -8 0 -17 -10 -19 -22 -2 -13
-5 -3 -5 22 -1 25 2 40 6 33 5 -7 15 -2 32 17 14 16 27 24 29 18 2 -6 -7 -19
-19 -28z m2190 14 c0 -8 -5 -12 -10 -9 -6 4 -8 11 -5 16 9 14 15 11 15 -7z
m44 -9 c-4 -8 -8 -15 -10 -15 -2 0 -4 7 -4 15 0 8 4 15 10 15 5 0 7 -7 4 -15z
m-2358 -80 c16 -8 24 -15 18 -15 -6 0 -16 -10 -22 -22 l-11 -23 0 22 c-1 12
-5 25 -11 28 -10 6 -14 25 -6 25 2 0 17 -7 32 -15z m2484 -40 c0 -14 -4 -25
-10 -25 -5 0 -10 11 -10 25 0 14 5 25 10 25 6 0 10 -11 10 -25z m52 -12 c-6
-35 -20 -53 -39 -53 -13 0 -13 3 -3 15 7 8 10 15 7 15 -4 0 34 49 39 50 1 0
-1 -12 -4 -27z m-2522 -39 c0 -22 -2 -25 -15 -14 -8 7 -15 19 -15 26 0 8 7 14
15 14 10 0 15 -10 15 -26z m-20 -38 c0 -3 -4 -8 -10 -11 -5 -3 -10 -1 -10 4 0
6 5 11 10 11 6 0 10 -2 10 -4z m-23 -168 c-2 -13 -4 -3 -4 22 0 25 2 35 4 23
2 -13 2 -33 0 -45z m-57 32 c0 -5 -4 -10 -10 -10 -5 0 -10 5 -10 10 0 6 5 10
10 10 6 0 10 -4 10 -10z m2550 -32 c0 -16 -3 -19 -11 -11 -6 6 -8 16 -5 22 11
17 16 13 16 -11z"/>
<path d="M2410 3815 c0 -9 6 -12 15 -9 8 4 12 10 9 15 -8 14 -24 10 -24 -6z"/>
<path d="M3640 3743 c0 -20 53 -64 61 -51 9 15 1 30 -12 23 -5 -4 -9 -1 -9 6
0 7 -3 9 -7 6 -3 -4 -12 1 -19 11 -8 10 -13 12 -14 5z"/>
<path d="M2149 3683 c-7 -10 -9 -15 -5 -11 5 4 14 4 20 -1 6 -4 20 -11 30 -15
16 -5 17 -4 6 9 -7 8 -19 15 -27 15 -8 0 -11 5 -8 10 10 17 -2 11 -16 -7z"/>
<path d="M3390 3630 c-12 -8 -11 -10 6 -10 11 0 25 -5 31 -11 8 -8 13 -7 18 2
5 8 4 10 -3 5 -7 -4 -12 -1 -12 8 0 18 -18 20 -40 6z"/>
<path d="M3800 3609 c0 -6 7 -9 15 -5 8 3 15 1 15 -4 0 -6 7 -10 16 -10 14 0
14 3 4 15 -14 17 -50 20 -50 4z"/>
<path d="M2355 3600 c-7 -12 11 -40 26 -40 12 0 5 43 -8 47 -6 2 -14 -1 -18
-7z"/>
<path d="M2396 3594 c-2 -6 2 -11 10 -11 8 0 14 4 14 9 0 5 4 7 8 4 4 -2 14
-1 21 4 9 5 2 7 -18 6 -17 0 -33 -6 -35 -12z"/>
<path d="M1985 3554 c-11 -12 -13 -20 -6 -27 8 -8 15 -7 23 1 9 9 9 12 -1 12
-7 0 -9 5 -6 10 4 6 11 7 17 4 7 -4 8 -2 4 4 -9 15 -11 15 -31 -4z"/>
<path d="M3742 3443 c5 -17 2 -20 -11 -15 -14 5 -14 4 -2 -11 8 -10 14 -16 15
-15 1 2 7 10 14 19 10 13 9 19 -5 30 -15 12 -16 12 -11 -8z"/>
<path d="M1820 3359 c0 -5 5 -7 10 -4 6 3 10 8 10 11 0 2 -4 4 -10 4 -5 0 -10
-5 -10 -11z"/>
<path d="M1797 3336 c-10 -25 -9 -28 6 -23 6 2 20 0 30 -5 13 -6 17 -5 17 7 0
9 -6 15 -12 12 -7 -2 -18 3 -24 11 -9 13 -12 13 -17 -2z"/>
<path d="M1768 3293 c6 -3 10 -9 7 -14 -4 -5 -2 -15 2 -22 6 -11 13 -8 30 12
l21 27 -36 1 c-21 0 -31 -2 -24 -4z m37 -13 c-3 -5 -11 -10 -16 -10 -6 0 -7 5
-4 10 3 6 11 10 16 10 6 0 7 -4 4 -10z"/>
<path d="M3910 3237 c14 -7 25 -20 24 -28 -1 -8 7 -16 17 -16 18 -2 18 0 4 28
-12 21 -23 29 -43 29 l-27 0 25 -13z"/>
<path d="M1907 3153 c4 -11 3 -14 -5 -9 -11 6 -17 -12 -13 -36 2 -13 -17 -9
-21 4 -3 7 -5 -10 -5 -37 0 -28 2 -40 4 -27 2 12 15 34 29 49 13 14 22 28 19
31 -2 2 0 13 6 23 7 15 6 19 -5 19 -10 0 -13 -6 -9 -17z"/>
<path d="M3995 3099 c-6 -9 20 -30 28 -22 12 12 7 30 -8 30 -9 0 -18 -4 -20
-8z"/>
<path d="M4230 3080 c0 -5 5 -10 11 -10 5 0 7 5 4 10 -3 6 -8 10 -11 10 -2 0
-4 -4 -4 -10z"/>
<path d="M1817 3033 c-12 -11 -8 -23 7 -23 8 0 16 7 20 15 5 15 -14 21 -27 8z"/>
<path d="M1812 2988 c-7 -7 -12 -18 -12 -25 0 -7 -9 -22 -20 -33 -11 -11 -15
-20 -10 -20 6 0 10 -7 8 -16 -2 -10 2 -19 8 -21 15 -5 27 28 15 40 -14 14 6
50 22 40 8 -4 8 -1 -1 9 -11 14 -10 18 5 27 10 6 13 11 8 11 -6 0 -16 -5 -23
-12z"/>
<path d="M4287 2963 c-4 -3 -7 -11 -7 -17 0 -6 5 -5 12 2 6 6 9 14 7 17 -3 3
-9 2 -12 -2z"/>
<path d="M4089 2897 c6 -8 7 -18 3 -22 -4 -5 -1 -5 6 -1 10 6 10 11 1 22 -6 8
-14 14 -16 14 -3 0 0 -6 6 -13z"/>
<path d="M1757 2863 c-3 -5 -4 -21 -3 -38 1 -31 21 -38 21 -7 1 9 4 22 8 28 7
12 0 24 -14 24 -4 0 -10 -3 -12 -7z"/>
<path d="M4143 2726 c4 -10 7 -24 7 -31 0 -7 10 -12 25 -11 14 0 25 1 25 2 0
0 -14 13 -32 29 -21 19 -29 22 -25 11z"/>
<path d="M1540 2675 c0 -8 4 -15 10 -15 5 0 7 7 4 15 -4 8 -8 15 -10 15 -2 0
-4 -7 -4 -15z"/>
<path d="M1580 2680 c-13 -9 -13 -11 0 -20 12 -8 13 -10 1 -10 -8 0 -12 -3 -9
-6 9 -8 48 19 48 33 0 15 -19 17 -40 3z"/>
<path d="M4324 2657 c-15 -9 -15 -11 7 -23 27 -15 52 -19 30 -5 -11 7 -12 13
-3 24 14 17 -6 19 -34 4z"/>
<path d="M1521 2633 c-1 -26 11 -30 28 -9 8 10 9 16 1 21 -5 3 -10 -2 -11 -12
0 -16 -1 -16 -9 2 -8 19 -9 19 -9 -2z"/>
<path d="M3658 2523 c7 -3 16 -2 19 1 4 3 -2 6 -13 5 -11 0 -14 -3 -6 -6z"/>
<path d="M3768 2523 c6 -2 18 -2 25 0 6 3 1 5 -13 5 -14 0 -19 -2 -12 -5z"/>
<path d="M3890 2522 c0 -5 7 -9 15 -9 8 0 12 4 9 9 -3 4 -9 8 -15 8 -5 0 -9
-4 -9 -8z"/>
<path d="M3168 2513 c6 -2 12 -9 12 -14 0 -6 -4 -7 -10 -4 -18 11 -11 -7 17
-43 22 -29 24 -38 14 -53 -13 -22 1 -25 21 -6 11 11 13 3 14 -50 0 -35 -3 -63
-8 -63 -5 0 -6 5 -3 10 8 13 -11 13 -36 0 -22 -13 -26 2 -4 20 8 7 12 17 9 22
-7 11 -19 2 -19 -15 -1 -7 -6 -11 -13 -10 -6 2 -9 -3 -6 -11 4 -9 -3 -13 -23
-12 -27 1 -28 -1 -31 -56 -4 -74 -22 -76 -22 -3 0 30 -4 55 -10 55 -5 0 -10
-23 -10 -51 0 -54 16 -78 53 -79 18 0 25 -20 7 -20 -16 0 -12 -27 6 -34 8 -3
13 -9 10 -14 -2 -4 14 -7 35 -7 22 0 36 1 30 3 -6 2 -11 7 -11 11 0 9 42 8 57
-2 8 -5 8 -1 0 18 -13 28 -42 33 -51 10 -3 -8 -17 -15 -30 -15 -18 0 -24 4
-20 15 4 8 13 15 21 15 8 0 12 4 9 8 -3 5 9 9 27 10 17 0 34 -3 37 -8 3 -5 12
-5 20 1 13 8 13 10 0 19 -8 5 -10 10 -4 10 5 0 19 -6 30 -14 17 -13 23 -12 50
5 17 10 34 16 38 12 4 -4 4 0 0 10 -4 13 2 20 25 30 27 12 30 15 18 31 -13 17
-14 17 -30 1 -10 -9 -14 -21 -11 -27 5 -7 2 -8 -6 -3 -8 5 -11 4 -7 -1 3 -6 2
-16 -3 -24 -15 -24 -6 30 10 63 15 31 22 33 40 12 7 -8 16 -15 21 -15 5 0 6 7
3 15 -4 8 -12 15 -20 15 -8 0 -14 9 -14 21 0 11 5 17 10 14 6 -3 10 1 10 9 0
9 5 16 10 16 6 0 10 -9 10 -20 0 -11 -5 -20 -12 -20 -9 0 -9 -3 0 -12 16 -16
22 -8 28 45 l6 46 -40 -5 c-43 -5 -61 13 -42 44 8 15 9 15 10 -3 0 -16 7 -20
35 -21 22 0 32 3 26 9 -5 5 -7 17 -4 26 4 13 3 14 -5 1 -6 -8 -8 -18 -6 -22 3
-4 0 -8 -5 -8 -6 0 -11 6 -11 13 0 8 -9 22 -20 32 -24 22 -25 38 -5 55 13 11
14 8 9 -18 -3 -16 -1 -32 4 -36 6 -4 8 3 5 16 -5 23 -5 23 11 3 15 -19 15 -18
2 15 -8 19 -19 35 -25 34 -6 -1 -18 -2 -27 -2 -8 -1 -13 -6 -10 -11 8 -12 -48
0 -56 13 -5 7 -8 6 -8 -4 0 -12 -2 -12 -9 -2 -6 10 -13 10 -32 2 -21 -10 -24
-17 -21 -47 3 -26 1 -34 -8 -28 -7 4 -9 17 -6 31 4 14 2 24 -4 24 -6 0 -9 4
-6 9 3 5 -4 11 -17 15 -26 7 -47 7 -29 -1z m32 -39 c0 -8 -4 -12 -10 -9 -5 3
-10 10 -10 16 0 5 5 9 10 9 6 0 10 -7 10 -16z m161 -51 c-8 -15 -10 -15 -11
-2 0 17 10 32 18 25 2 -3 -1 -13 -7 -23z m5 -129 c-6 -31 -16 -45 -16 -21 0
18 10 47 16 47 3 0 2 -12 0 -26z"/>
<path d="M2017 2499 c-11 -6 -31 -9 -45 -6 l-27 6 3 -162 c4 -219 9 -230 11
-23 0 93 4 166 8 163 3 -4 7 -81 7 -172 1 -147 -1 -165 -16 -165 -10 0 -15 -7
-14 -17 3 -16 16 -18 109 -20 60 -1 107 3 107 8 0 5 -34 9 -77 9 -95 0 -92 8
5 12 72 3 80 6 63 23 -11 12 -18 281 -8 291 8 8 9 -1 8 -161 0 -90 2 -111 9
-85 14 53 11 312 -3 280 l-10 -25 -5 25 c-4 23 -5 24 -13 5 -6 -15 -8 -16 -8
-4 -1 25 -71 37 -104 18z m-20 -66 c-3 -10 -5 -4 -5 12 0 17 2 24 5 18 2 -7 2
-21 0 -30z m1 -287 c-5 -6 -7 48 -6 120 l2 129 5 -120 c4 -66 3 -124 -1 -129z
m2 -24 c0 -4 -9 -8 -20 -8 -11 0 -20 4 -20 8 0 4 9 8 20 8 11 0 20 -4 20 -8z"/>
<path d="M2295 2500 c-3 -5 -1 -19 5 -30 6 -11 8 -26 4 -32 -4 -6 1 -17 11
-24 10 -8 16 -17 12 -20 -3 -4 0 -19 8 -35 8 -15 15 -36 15 -46 -1 -10 -8 -2
-18 19 l-18 38 -16 -28 c-17 -29 -9 -72 14 -72 9 0 9 3 -2 10 -11 7 -12 12 -4
20 14 14 23 2 30 -38 3 -20 2 -23 -6 -12 -5 8 -10 10 -10 4 0 -6 7 -17 16 -25
9 -7 14 -22 11 -36 -3 -19 0 -23 19 -23 13 0 24 -4 24 -9 0 -18 54 -4 61 15 6
16 8 14 8 -8 1 -16 -3 -28 -9 -28 -5 0 -10 -7 -10 -16 0 -8 -5 -12 -10 -9 -6
4 -8 11 -5 16 4 5 -1 9 -10 9 -10 0 -13 -5 -9 -12 5 -9 2 -9 -9 1 -15 12 -17
11 -17 -7 0 -19 7 -21 98 -24 105 -3 142 -1 142 10 0 4 -35 9 -77 10 -43 2
-80 6 -83 8 -3 3 24 5 60 4 93 -2 102 -1 95 11 -4 6 -9 8 -13 5 -3 -3 -11 2
-19 12 -8 9 -12 11 -8 5 4 -9 1 -11 -11 -6 -14 5 -13 8 7 25 13 11 19 17 13
14 -7 -3 -14 1 -18 9 -8 22 -26 18 -26 -6 0 -11 -4 -17 -10 -14 -5 3 -10 15
-10 26 0 10 -4 19 -9 19 -5 0 -12 14 -16 30 -4 17 -11 28 -16 25 -5 -4 -6 1
-3 10 4 9 -2 25 -12 37 -11 12 -13 18 -6 14 6 -4 12 -2 12 3 0 23 16 10 18
-15 2 -32 11 -46 23 -39 5 3 6 -1 3 -9 -3 -9 -1 -16 5 -16 6 0 10 11 9 24 -1
14 -5 23 -9 20 -6 -3 -21 20 -23 38 -1 3 -4 10 -8 14 -13 12 -9 26 5 18 7 -5
6 -1 -3 10 -8 11 -16 14 -18 7 -6 -18 -57 -13 -75 7 -21 23 -22 42 -2 42 8 0
15 -9 15 -20 0 -15 7 -20 25 -20 18 0 23 4 19 15 -4 8 -10 15 -15 15 -12 0
-40 56 -31 64 3 4 -1 4 -10 1 -8 -3 -20 -16 -26 -28 l-11 -22 0 21 c-1 30 -51
48 -66 24z m45 -4 c0 -3 -4 -8 -10 -11 -5 -3 -10 -1 -10 4 0 6 5 11 10 11 6 0
10 -2 10 -4z m14 -78 c7 -30 -9 -40 -16 -10 -4 16 1 47 7 40 1 -2 5 -15 9 -30z
m111 -178 c3 -5 1 -10 -4 -10 -6 0 -11 5 -11 10 0 6 2 10 4 10 3 0 8 -4 11
-10z m38 -60 c3 -13 0 -20 -9 -20 -8 0 -14 10 -14 26 0 28 15 25 23 -6z"/>
<path d="M2432 2482 c1 -26 3 -30 10 -18 5 10 5 23 -1 34 -8 14 -10 10 -9 -16z"/>
<path d="M2720 2321 c0 -142 3 -191 13 -194 10 -4 10 -6 0 -6 -7 -1 -13 -7
-13 -15 0 -9 7 -12 19 -9 12 3 17 11 14 19 -3 8 1 14 11 14 9 0 16 -8 16 -17
0 -16 9 -18 73 -15 64 3 73 6 73 23 0 23 -41 33 -115 28 l-49 -4 -2 174 c0 96
-3 178 -6 183 -3 4 -12 8 -20 8 -12 0 -14 -31 -14 -189z m22 -44 c2 -75 0
-137 -4 -137 -5 0 -7 82 -6 183 2 195 6 177 10 -46z m136 -154 c-15 -2 -42 -2
-60 0 -18 2 -6 4 27 4 33 0 48 -2 33 -4z"/>
<path d="M2817 2502 l-37 -3 2 -167 3 -167 72 -5 72 -5 3 175 3 175 -40 0
c-22 0 -57 -1 -78 -3z"/>
<path d="M3640 2501 c0 -6 5 -13 12 -17 7 -4 8 -3 4 4 -4 7 -3 12 1 12 5 0 17
-13 26 -30 12 -20 14 -30 6 -30 -8 0 -8 -4 1 -15 7 -9 13 -32 12 -51 l-1 -36
19 24 19 23 1 -27 c0 -17 -5 -28 -13 -28 -8 0 -20 -11 -27 -25 -12 -23 -18
-25 -72 -22 l-58 4 0 -65 0 -64 35 6 c20 4 35 3 35 -3 0 -5 8 -12 18 -14 13
-4 12 -5 -5 -6 -12 0 -23 4 -25 10 -2 6 -14 5 -33 -5 -27 -14 -28 -16 -7 -16
12 0 31 -6 42 -12 17 -11 22 -10 29 0 9 15 51 13 54 -3 1 -5 -10 -10 -26 -10
-15 -1 -35 -9 -44 -18 -16 -16 -16 -17 -1 -17 9 0 20 5 24 11 3 6 17 9 30 6
13 -2 24 0 24 5 0 5 5 6 10 3 6 -4 8 -10 5 -14 -2 -5 7 -6 21 -3 14 3 31 15
37 29 10 22 12 23 23 9 10 -15 13 -15 24 -1 11 13 10 14 -4 9 -9 -3 -16 -1
-16 5 0 6 -11 11 -25 11 -14 0 -25 5 -25 11 0 7 10 9 26 5 17 -5 23 -3 19 4
-8 13 15 13 35 0 13 -8 12 -10 -4 -10 -11 0 -16 -3 -13 -7 4 -3 23 2 42 13 24
13 35 26 35 41 0 14 6 23 16 23 8 0 12 5 9 10 -3 6 -1 10 4 10 6 0 11 7 11 16
0 12 -5 11 -19 -7 -16 -19 -19 -20 -17 -6 1 9 8 23 14 29 7 7 12 23 12 36 0
13 4 21 9 17 15 -9 23 13 16 44 -9 40 -42 31 -48 -13 -2 -17 -4 -7 -3 21 1 29
4 53 9 53 4 0 7 -4 7 -10 0 -5 4 -10 10 -10 5 0 6 7 3 17 -5 12 -3 14 7 8 8
-5 6 4 -6 23 -10 17 -20 29 -22 27 -2 -2 -11 2 -19 10 -11 12 -43 15 -139 15
-71 0 -124 -4 -124 -9z m70 -11 c0 -5 -7 -7 -15 -4 -8 4 -15 8 -15 10 0 2 7 4
15 4 8 0 15 -4 15 -10z m50 0 c0 -5 -2 -10 -4 -10 -3 0 -8 5 -11 10 -3 6 -1
10 4 10 6 0 11 -4 11 -10z m180 -40 c0 -5 -5 -10 -11 -10 -5 0 -7 5 -4 10 3 6
8 10 11 10 2 0 4 -4 4 -10z m-201 -27 c7 -16 9 -25 5 -21 -4 4 -14 2 -23 -4
-9 -7 -13 -8 -9 -4 4 5 3 15 -3 22 -11 13 -5 34 10 34 4 0 13 -12 20 -27z m61
-23 c0 -5 -6 -10 -14 -10 -13 0 -16 -42 -5 -76 4 -11 0 -14 -18 -14 -12 0 -10
83 1 97 13 15 36 17 36 3z m128 -115 c-3 -3 -9 2 -12 12 -6 14 -5 15 5 6 7 -7
10 -15 7 -18z m-193 5 c3 -5 -1 -10 -10 -10 -9 0 -13 5 -10 10 3 6 8 10 10 10
2 0 7 -4 10 -10z m2 -136 c-16 -8 -34 -13 -40 -10 -7 2 -4 5 6 5 9 1 17 6 17
11 0 6 10 10 23 10 21 -1 20 -2 -6 -16z m33 -54 c12 -8 11 -10 -7 -10 -13 0
-23 5 -23 10 0 13 11 13 30 0z"/>
<path d="M2240 2491 c-8 -6 -19 -7 -25 -4 -5 3 -1 -4 10 -15 30 -32 41 -46 55
-72 11 -20 10 -22 -3 -17 -10 4 -14 0 -12 -11 2 -9 4 -20 4 -24 2 -18 21 -6
21 12 0 11 6 20 13 20 9 0 9 2 -1 9 -7 4 -12 12 -10 17 2 8 -29 94 -34 94 -2
0 -10 -4 -18 -9z"/>
<path d="M2230 2426 c0 -2 8 -10 18 -17 15 -13 16 -12 3 4 -13 16 -21 21 -21
13z"/>
<path d="M3195 2360 c-7 -12 12 -40 27 -40 5 0 4 8 -1 19 -6 10 -7 21 -4 25 3
3 1 6 -5 6 -6 0 -14 -5 -17 -10z"/>
<path d="M3060 2300 c0 -5 7 -10 16 -10 8 0 12 5 9 10 -3 6 -10 10 -16 10 -5
0 -9 -4 -9 -10z"/>
<path d="M2520 2239 c9 -16 14 -18 26 -8 16 13 19 23 5 14 -5 -3 -12 -1 -16 5
-12 20 -26 10 -15 -11z"/>
<path d="M2350 2151 c0 -5 5 -13 10 -16 6 -3 10 -2 10 4 0 5 -4 13 -10 16 -5
3 -10 2 -10 -4z"/>
<path d="M3340 2151 c0 -6 5 -13 10 -16 6 -3 10 1 10 9 0 9 -4 16 -10 16 -5 0
-10 -4 -10 -9z"/>
<path d="M3077 2121 c-3 -11 1 -22 7 -24 7 -3 13 5 14 19 2 29 -14 32 -21 5z"/>
<path d="M3263 2133 c-18 -7 -16 -21 5 -32 15 -8 18 -5 20 15 2 24 -2 27 -25
17z"/>
<path d="M3316 2132 c-3 -5 1 -9 9 -9 8 0 12 4 9 9 -3 4 -7 8 -9 8 -2 0 -6 -4
-9 -8z"/>
<path d="M3570 2106 c0 -9 2 -16 4 -16 2 0 11 -3 20 -6 11 -4 16 0 16 12 0 9
-3 14 -7 11 -3 -4 -12 -2 -20 4 -10 9 -13 8 -13 -5z"/>
<path d="M410 552 l5 -67 3 59 c2 32 -1 63 -5 67 -4 4 -6 -22 -3 -59z"/>
<path d="M1560 605 c0 -7 30 -13 34 -7 3 4 -4 9 -15 9 -10 1 -19 0 -19 -2z"/>
<path d="M2628 587 c-2 -15 -10 -22 -23 -21 -15 0 -21 -6 -21 -23 0 -13 1 -23
2 -23 4 0 74 70 74 74 0 2 -6 6 -14 9 -10 4 -16 -2 -18 -16z"/>
<path d="M2900 604 c0 -1 8 -8 17 -15 9 -8 14 -9 10 -2 -4 6 -1 13 5 16 7 3 3
4 -9 4 -13 -1 -23 -2 -23 -3z"/>
<path d="M3200 572 c0 -21 3 -41 6 -45 9 -9 35 4 28 14 -3 5 -8 7 -12 5 -11
-7 -9 48 3 56 6 5 3 8 -7 8 -14 0 -18 -8 -18 -38z"/>
<path d="M3343 598 c-3 -7 -1 -8 5 -4 15 9 16 -6 1 -21 -8 -8 -8 -13 0 -17 6
-4 11 -12 11 -17 0 -6 -4 -8 -9 -5 -5 3 -8 -2 -7 -12 0 -9 7 -21 14 -25 11 -7
11 -11 0 -25 -10 -12 -10 -14 0 -8 8 5 12 0 12 -13 0 -15 4 -19 17 -14 10 4
14 2 10 -4 -4 -6 0 -13 8 -17 17 -6 21 9 5 19 -5 3 -10 11 -10 16 0 6 5 7 11
4 6 -4 5 2 -2 13 -7 12 -21 23 -31 25 -10 3 -18 10 -18 16 0 9 5 9 21 1 11 -6
25 -9 32 -6 7 2 4 5 -5 5 -12 1 -16 7 -12 19 5 13 4 14 -4 3 -11 -15 -27 2
-17 18 3 5 0 13 -6 17 -9 5 -7 11 5 19 15 12 15 13 -4 18 -11 3 -23 0 -27 -5z
m57 -132 c0 -3 -4 -8 -10 -11 -5 -3 -10 -1 -10 4 0 6 5 11 10 11 6 0 10 -2 10
-4z"/>
<path d="M4070 600 c-11 -7 -11 -10 -2 -10 7 0 11 -4 7 -9 -3 -6 -14 -8 -25
-6 -21 4 -27 -9 -9 -21 6 -3 20 3 31 14 23 23 22 47 -2 32z"/>
<path d="M4165 597 c-8 -24 -10 -127 -2 -127 4 0 7 -9 7 -20 0 -11 6 -20 14
-20 8 0 14 9 13 19 0 11 -5 17 -9 15 -11 -7 -10 10 1 22 5 5 11 34 13 65 3 47
0 55 -15 56 -10 1 -20 -4 -22 -10z m22 -79 c-2 -18 -4 -6 -4 27 0 33 2 48 4
33 2 -15 2 -42 0 -60z"/>
<path d="M4576 594 c-4 -10 -13 -13 -25 -9 -15 5 -19 1 -18 -14 0 -11 5 -17 9
-15 5 3 5 10 2 16 -4 6 -2 8 4 5 5 -4 8 -17 4 -29 -5 -19 -4 -20 10 -7 9 7 14
16 13 19 -2 3 0 12 5 20 7 12 11 12 27 0 16 -13 16 -12 -1 8 -23 26 -22 26
-30 6z"/>
<path d="M5150 542 l5 -67 3 59 c2 32 -1 63 -5 67 -4 4 -6 -22 -3 -59z"/>
<path d="M5182 601 c-9 -5 -12 -27 -10 -69 2 -47 6 -60 16 -53 9 5 12 27 10
69 -2 47 -6 60 -16 53z"/>
<path d="M5395 600 c-3 -5 -1 -10 5 -10 6 0 8 -4 5 -10 -3 -5 -2 -10 4 -10 5
0 12 4 15 9 3 5 16 7 29 4 18 -4 19 -3 7 6 -8 6 -23 8 -34 5 -12 -4 -16 -2
-12 5 4 6 3 11 -3 11 -5 0 -13 -4 -16 -10z"/>
<path d="M520 592 c0 -5 7 -9 15 -9 8 0 12 4 9 9 -3 4 -9 8 -15 8 -5 0 -9 -4
-9 -8z"/>
<path d="M1733 545 c0 -33 2 -45 4 -27 2 18 2 45 0 60 -2 15 -4 0 -4 -33z"/>
<path d="M1753 545 c0 -33 2 -45 4 -27 2 18 2 45 0 60 -2 15 -4 0 -4 -33z"/>
<path d="M1770 551 c0 -48 -21 -107 -33 -94 -4 3 -7 -1 -7 -10 0 -11 8 -17 23
-17 22 0 23 4 26 85 1 47 0 85 -3 85 -3 0 -6 -22 -6 -49z"/>
<path d="M2596 591 c-3 -5 1 -11 9 -15 9 -3 15 0 15 9 0 16 -16 20 -24 6z"/>
<path d="M4266 593 c-3 -3 2 -12 10 -20 8 -8 11 -20 7 -26 -3 -7 -2 -9 2 -4
15 13 15 45 1 50 -8 3 -17 3 -20 0z"/>
<path d="M4316 588 c3 -5 10 -6 15 -3 13 9 11 12 -6 12 -8 0 -12 -4 -9 -9z"/>
<path d="M4380 596 c0 -2 7 -7 16 -10 8 -3 12 -2 9 4 -6 10 -25 14 -25 6z"/>
<path d="M4432 541 c1 -32 -2 -63 -5 -68 -3 -5 -2 -15 4 -23 7 -12 9 -10 9 7
0 12 6 24 13 26 9 4 8 8 -3 16 -12 8 -13 14 -3 29 8 13 8 23 1 30 -6 6 -6 12
1 16 16 10 14 26 -3 26 -10 0 -14 -15 -14 -59z"/>
<path d="M4722 580 c0 -14 2 -19 5 -12 2 6 2 18 0 25 -3 6 -5 1 -5 -13z"/>
<path d="M4745 570 c-4 -16 -11 -32 -16 -35 -18 -12 -9 -25 15 -23 19 2 22 5
14 15 -8 10 -8 21 1 39 13 30 14 34 2 34 -5 0 -12 -13 -16 -30z"/>
<path d="M4929 584 c-8 -10 -14 -39 -14 -69 0 -41 3 -51 18 -52 9 -1 17 3 17
8 0 6 -4 7 -10 4 -5 -3 -10 1 -10 10 0 9 5 13 10 10 6 -3 10 -1 10 4 0 6 -6
11 -13 11 -8 0 -14 7 -14 15 0 8 4 15 9 15 4 0 8 8 8 18 0 14 2 15 10 2 8 -13
14 -8 12 11 -1 8 66 5 74 -4 4 -4 14 -1 22 6 13 10 14 9 4 -10 -17 -30 -15
-41 7 -53 17 -9 19 -7 17 24 -4 44 -12 56 -36 51 -11 -2 -20 0 -20 6 0 5 -7 9
-15 9 -8 0 -15 -5 -15 -11 0 -6 -7 -8 -15 -5 -8 3 -21 8 -28 11 -8 3 -20 -2
-28 -11z m144 -49 c-3 -9 -8 -14 -10 -11 -3 3 -2 9 2 15 9 16 15 13 8 -4z"/>
<path d="M5257 593 c-10 -9 -9 -91 1 -97 4 -2 9 20 10 50 2 54 1 60 -11 47z"/>
<path d="M5355 590 c-7 -11 -5 -183 2 -176 4 4 10 186 6 186 -1 0 -5 -4 -8
-10z"/>
<path d="M499 580 c-2 -19 2 -44 7 -49 6 -6 34 20 34 31 0 6 -8 4 -17 -3 -9
-8 -14 -9 -11 -4 4 6 3 17 -3 25 -7 13 -9 13 -10 0z"/>
<path d="M4354 535 c-1 -30 2 -52 7 -49 5 3 9 23 9 45 0 24 5 39 13 39 8 0 7
4 -3 10 -24 15 -25 13 -26 -45z"/>
<path d="M4821 580 c-19 -11 5 -23 25 -12 14 8 14 10 2 15 -8 3 -21 2 -27 -3z"/>
<path d="M5376 572 c-2 -4 -1 -14 5 -22 7 -12 9 -10 9 8 0 23 -5 28 -14 14z"/>
<path d="M5438 564 c-8 -7 11 -64 22 -64 4 0 10 9 13 21 3 12 3 18 -1 15 -3
-4 -11 3 -17 14 -6 11 -14 18 -17 14z"/>
<path d="M438 519 c-2 -22 0 -43 4 -45 4 -3 8 15 8 40 0 57 -7 60 -12 5z"/>
<path d="M1010 545 c-7 -8 -18 -15 -26 -15 -22 0 -26 -18 -5 -30 14 -7 22 -7
27 2 5 7 3 8 -6 3 -8 -5 -11 -3 -8 6 3 8 19 13 40 14 31 0 35 -2 27 -17 -7
-12 -6 -18 1 -18 17 0 23 29 10 46 -10 11 -15 12 -20 3 -4 -6 -13 -8 -19 -5
-6 4 -9 12 -6 17 10 14 -1 10 -15 -6z"/>
<path d="M3083 530 c10 -28 40 -40 37 -15 -1 6 -6 9 -12 7 -5 -1 -7 2 -3 7 3
6 -3 15 -14 20 -18 10 -18 9 -8 -19z"/>
<path d="M5282 535 c0 -16 2 -22 5 -12 2 9 2 23 0 30 -3 6 -5 -1 -5 -18z"/>
<path d="M820 540 c0 -5 9 -10 21 -10 13 0 18 -4 13 -12 -5 -9 -2 -8 9 1 20
16 20 16 -15 25 -17 4 -28 2 -28 -4z"/>
<path d="M1174 539 c-9 -15 18 -21 32 -7 12 12 11 14 -7 14 -11 0 -22 -4 -25
-7z"/>
<path d="M1276 531 c-13 -15 -14 -20 -4 -24 9 -4 8 -6 -3 -6 -9 -1 -19 -8 -23
-16 -4 -13 -1 -12 20 1 14 10 23 23 20 30 -3 7 0 15 7 17 7 2 9 7 6 11 -3 3
-14 -2 -23 -13z"/>
<path d="M1473 527 c-15 -16 -15 -19 -3 -27 10 -6 11 -10 3 -10 -7 0 -10 -7
-7 -15 9 -21 25 -19 17 3 -5 14 -4 15 8 4 12 -11 11 -15 -5 -28 -11 -8 -22
-10 -25 -5 -3 5 -12 3 -18 -5 -8 -8 -9 -15 -3 -19 6 -3 10 -1 10 6 0 7 7 4 15
-7 13 -16 14 -16 9 -1 -4 11 -1 17 9 17 23 0 30 31 11 51 -15 17 -11 45 6 34
4 -3 12 1 18 8 18 21 -26 16 -45 -6z"/>
<path d="M1870 540 c0 -5 5 -10 11 -10 5 0 7 5 4 10 -3 6 -8 10 -11 10 -2 0
-4 -4 -4 -10z"/>
<path d="M1905 541 c-3 -5 -1 -12 4 -16 6 -3 7 -13 4 -22 -4 -11 -3 -14 5 -9
8 5 12 0 12 -13 0 -12 4 -21 10 -21 8 0 8 25 1 72 0 4 -8 4 -18 1 -11 -4 -14
-3 -9 5 4 7 5 12 2 12 -3 0 -7 -4 -11 -9z"/>
<path d="M2167 534 c3 -9 -2 -12 -16 -9 -15 3 -18 0 -14 -12 5 -12 3 -14 -7
-8 -9 6 -11 4 -5 -5 6 -10 11 -9 22 5 12 17 13 17 13 2 0 -10 -8 -21 -17 -25
-10 -4 -19 -13 -21 -20 -1 -8 2 -11 7 -7 6 3 17 -7 25 -22 8 -15 15 -22 16
-14 0 8 7 11 18 7 15 -5 15 -5 -1 8 -10 8 -18 18 -19 23 0 4 -4 7 -9 5 -6 -1
-4 8 3 20 7 13 12 27 13 31 0 4 6 11 13 16 10 6 9 9 -6 13 -14 4 -19 2 -15 -8z"/>
<path d="M2386 541 c-4 -5 -2 -12 3 -15 5 -4 12 -2 15 3 4 5 2 12 -3 15 -5 4
-12 2 -15 -3z"/>
<path d="M3271 536 c-7 -8 -8 -17 -3 -20 6 -3 13 1 16 10 9 23 2 28 -13 10z"/>
<path d="M3673 543 c3 -3 -3 -14 -14 -26 -23 -25 -24 -31 -3 -51 8 -9 11 -16
6 -16 -5 0 -12 -9 -15 -20 -4 -17 -2 -18 14 -9 20 10 27 49 9 49 -5 0 -10 7
-10 15 0 9 10 15 28 16 16 1 20 3 10 6 -10 2 -18 8 -18 13 0 5 8 10 18 12 13
3 12 5 -6 10 -13 4 -22 4 -19 1z"/>
<path d="M4020 541 c0 -6 5 -13 10 -16 6 -4 8 -11 5 -16 -4 -5 -1 -9 6 -9 6 0
9 -8 6 -20 -3 -13 0 -20 10 -20 10 0 13 6 8 23 -6 21 -6 21 15 -3 11 -14 19
-18 18 -10 -2 8 -11 23 -20 34 -10 10 -15 24 -11 29 3 6 1 7 -5 3 -6 -3 -13
-2 -17 4 -8 13 -25 13 -25 1z m39 -35 c-3 -3 -11 5 -18 17 -13 21 -12 21 5 5
10 -10 16 -20 13 -22z"/>
<path d="M471 526 c-9 -10 -9 -16 -1 -21 17 -10 37 12 24 25 -8 8 -15 6 -23
-4z"/>
<path d="M630 532 c0 -5 7 -9 15 -9 8 0 15 4 15 9 0 4 -7 8 -15 8 -8 0 -15 -4
-15 -8z"/>
<path d="M695 530 c3 -6 2 -10 -4 -10 -6 0 -8 -7 -5 -15 5 -12 10 -13 20 -4
18 15 18 25 -2 33 -8 3 -12 2 -9 -4z"/>
<path d="M1310 529 c0 -5 5 -7 10 -4 6 3 10 -4 10 -17 0 -18 2 -20 10 -8 8 12
10 12 16 -3 3 -9 1 -24 -6 -32 -15 -18 -5 -35 21 -35 14 0 19 7 19 26 0 17 -4
23 -12 18 -7 -5 -9 -2 -6 7 3 8 0 23 -8 34 -15 21 -54 31 -54 14z"/>
<path d="M1565 530 c4 -6 11 -8 16 -5 14 9 11 15 -7 15 -8 0 -12 -5 -9 -10z"/>
<path d="M2052 528 c-13 -6 -21 -17 -18 -24 2 -6 -2 -21 -10 -33 -8 -12 -17
-30 -19 -42 -3 -17 -2 -19 10 -9 8 6 20 8 27 4 7 -4 10 -4 6 1 -4 4 -3 14 4
22 6 7 8 16 4 20 -3 4 -13 -2 -21 -13 -8 -10 -15 -14 -15 -7 0 7 9 18 19 25
15 9 17 15 9 25 -8 10 -7 13 3 10 8 -2 10 -2 5 1 -5 3 2 11 15 18 29 16 14 17
-19 2z"/>
<path d="M2227 519 c-23 -26 -19 -29 13 -12 14 7 19 13 12 13 -7 0 -10 5 -7
10 11 17 0 11 -18 -11z"/>
<path d="M2342 531 c-11 -7 -11 -9 1 -14 9 -3 18 1 21 9 6 16 -2 18 -22 5z"/>
<path d="M2629 535 c-1 -3 -2 -10 -3 -15 0 -6 -8 -15 -16 -20 -8 -5 -11 -10
-6 -10 4 0 1 -11 -8 -24 -11 -18 -13 -27 -4 -32 6 -4 8 -3 5 3 -10 16 39 53
52 40 8 -8 11 -8 11 1 0 7 -6 15 -14 18 -8 3 -13 14 -11 25 3 16 -3 29 -6 14z"/>
<path d="M2718 534 c-3 -3 -4 -19 -1 -36 3 -20 1 -28 -6 -23 -6 3 -11 -1 -11
-10 0 -9 4 -14 9 -11 10 7 33 -18 26 -27 -3 -4 -2 -5 2 -2 4 3 8 16 9 28 2 12
0 16 -2 9 -9 -19 -23 -4 -17 18 3 11 8 20 12 20 3 0 17 9 31 20 21 16 22 19 6
16 -11 -1 -22 -8 -24 -14 -2 -7 -8 -12 -14 -12 -6 0 -8 7 -4 15 5 15 -5 21
-16 9z"/>
<path d="M2809 538 c-10 -38 -2 -55 17 -34 8 9 7 15 -3 24 -7 7 -13 11 -14 10z"/>
<path d="M3030 531 c-8 -6 -18 -7 -24 -4 -5 3 -6 1 -3 -4 4 -6 16 -13 28 -16
11 -3 18 -3 15 0 -3 4 -1 12 5 20 13 15 1 17 -21 4z"/>
<path d="M3486 533 c-12 -12 -6 -22 11 -16 12 5 14 3 8 -7 -5 -9 -4 -11 3 -6
7 4 12 11 12 16 0 10 -26 20 -34 13z"/>
<path d="M3530 529 c0 -5 5 -7 10 -4 6 3 10 8 10 11 0 2 -4 4 -10 4 -5 0 -10
-5 -10 -11z"/>
<path d="M3791 527 c-6 -6 -11 -16 -11 -21 0 -6 6 -3 13 6 8 9 22 15 33 13 10
-2 21 -4 24 -4 3 -1 -2 -6 -10 -11 -13 -9 -13 -10 0 -10 8 0 21 4 28 9 11 6
10 10 -5 16 -30 14 -60 14 -72 2z"/>
<path d="M4811 526 c-8 -10 -9 -16 -1 -21 5 -3 13 1 16 9 3 9 10 13 16 10 5
-3 0 -13 -11 -21 -12 -8 -26 -11 -33 -7 -7 4 -8 3 -4 -5 16 -25 70 8 59 36 -7
17 -28 17 -42 -1z"/>
<path d="M791 516 c-6 -7 -9 -30 -6 -51 6 -49 17 -61 12 -12 -2 20 -2 39 1 42
6 6 12 35 7 35 -1 0 -8 -6 -14 -14z"/>
<path d="M1840 520 c0 -5 3 -10 8 -10 4 0 6 -18 4 -40 -4 -38 8 -54 23 -30 3
6 1 10 -4 10 -21 0 -11 47 12 59 l22 12 -22 -5 c-13 -2 -23 0 -23 5 0 5 -4 9
-10 9 -5 0 -10 -4 -10 -10z"/>
<path d="M2412 517 c-7 -9 -8 -23 -3 -43 9 -29 11 -26 15 29 2 31 2 31 -12 14z"/>
<path d="M2913 515 c0 -11 -3 -30 -7 -43 -5 -14 -3 -29 4 -37 9 -11 9 -15 1
-15 -6 0 -11 -5 -11 -11 0 -8 4 -9 13 0 8 6 16 9 18 6 3 -2 5 5 6 16 1 11 -2
17 -8 14 -13 -9 -11 29 3 43 8 8 9 12 1 12 -6 0 -14 8 -17 18 -4 14 -4 13 -3
-3z"/>
<path d="M3561 514 c0 -11 3 -14 6 -6 3 7 2 16 -1 19 -3 4 -6 -2 -5 -13z"/>
<path d="M3748 518 c-3 -7 -2 -22 2 -32 6 -18 7 -18 13 4 7 26 -7 51 -15 28z"/>
<path d="M5420 520 c0 -6 -5 -8 -12 -4 -7 4 -8 3 -4 -4 9 -14 36 -16 36 -3 0
6 -4 13 -10 16 -5 3 -10 1 -10 -5z"/>
<path d="M601 506 c-14 -17 -1 -28 19 -16 11 7 12 12 4 20 -8 8 -14 7 -23 -4z"/>
<path d="M875 510 c-3 -5 0 -7 9 -4 11 4 13 0 9 -17 -4 -15 -3 -20 5 -15 8 4
12 0 12 -11 0 -15 2 -16 10 -3 6 9 5 17 -2 21 -6 4 -8 11 -4 17 3 5 -1 13 -10
16 -21 8 -22 8 -29 -4z"/>
<path d="M1163 513 c-7 -3 -13 -9 -13 -14 0 -6 4 -8 9 -4 5 3 9 -8 9 -25 -1
-16 -6 -30 -12 -30 -6 0 -4 -4 4 -9 21 -14 28 -5 24 31 -2 17 1 35 7 39 13 8
-10 18 -28 12z"/>
<path d="M1516 503 c-6 -14 -5 -15 5 -6 7 7 10 15 7 18 -3 3 -9 -2 -12 -12z"/>
<path d="M2081 504 c0 -11 3 -14 6 -6 3 7 2 16 -1 19 -3 4 -6 -2 -5 -13z"/>
<path d="M3218 513 c-20 -5 -27 -22 -19 -44 5 -13 10 -9 23 17 10 19 17 33 15
33 -1 -1 -9 -3 -19 -6z"/>
<path d="M3294 506 c-3 -9 -9 -14 -13 -12 -4 3 -8 -4 -8 -15 -2 -21 21 -26 33
-7 4 7 3 8 -4 4 -16 -9 -15 7 0 22 6 6 9 15 5 18 -4 4 -9 -1 -13 -10z"/>
<path d="M4523 498 c3 -10 1 -21 -4 -24 -5 -3 -7 -10 -3 -15 4 -6 11 -6 19 1
16 13 39 4 29 -11 -3 -5 -10 -7 -15 -4 -5 4 -9 2 -9 -4 0 -6 8 -15 18 -20 16
-9 19 -6 18 14 -1 13 -9 32 -18 42 -8 10 -14 23 -11 29 2 6 -4 11 -12 11 -11
0 -15 -7 -12 -19z"/>
<path d="M4610 511 c0 -6 4 -13 10 -16 6 -3 7 1 4 9 -7 18 -14 21 -14 7z"/>
<path d="M509 508 c-5 -18 -6 -38 -1 -34 7 8 12 36 6 36 -2 0 -4 -1 -5 -2z"/>
<path d="M1565 497 c-11 -13 -17 -53 -7 -42 3 3 11 -7 18 -22 11 -26 12 -25
11 24 -2 55 -5 61 -22 40z"/>
<path d="M2324 493 c2 -10 0 -32 -4 -50 -7 -29 -6 -31 10 -21 10 7 16 17 13
24 -2 6 0 15 6 19 6 3 11 13 11 21 0 8 -4 12 -10 9 -5 -3 -10 -1 -10 4 0 6 -4
11 -9 11 -5 0 -8 -8 -7 -17z"/>
<path d="M3464 485 c0 -13 3 -22 7 -19 5 2 13 -5 20 -17 9 -17 13 -19 20 -8
10 16 -9 42 -24 32 -6 -4 -8 0 -4 10 3 8 0 17 -7 20 -7 3 -12 -4 -12 -18z"/>
<path d="M4276 495 c-3 -8 -1 -15 4 -15 13 0 22 18 11 24 -5 3 -11 -1 -15 -9z"/>
<path d="M4656 497 c3 -10 9 -15 12 -12 3 3 0 11 -7 18 -10 9 -11 8 -5 -6z"/>
<path d="M706 481 c-18 -19 -15 -26 8 -22 5 1 5 -6 2 -16 -6 -15 -5 -15 12 2
10 11 16 22 12 25 -4 3 -9 11 -11 18 -3 10 -10 8 -23 -7z m18 -9 c3 -5 -1 -9
-9 -9 -8 0 -12 4 -9 9 3 4 7 8 9 8 2 0 6 -4 9 -8z"/>
<path d="M2231 481 c-7 -13 -8 -22 -1 -26 14 -9 29 2 26 20 -4 25 -14 28 -25
6z"/>
<path d="M2997 494 c-3 -4 1 -13 9 -22 13 -12 13 -17 2 -24 -10 -7 -9 -8 4 -4
10 3 21 -1 25 -9 6 -10 13 -11 23 -5 13 8 12 10 -2 10 -10 0 -18 7 -18 16 0 8
-4 12 -10 9 -9 -6 -14 8 -11 28 1 9 -13 9 -22 1z"/>
<path d="M3855 484 c-13 -14 -14 -19 -3 -25 11 -7 10 -11 -2 -19 -9 -6 -10
-10 -3 -10 19 0 43 12 43 22 0 5 -5 6 -11 2 -8 -5 -10 1 -7 20 6 31 5 31 -17
10z"/>
<path d="M967 471 c-5 -21 2 -35 21 -38 15 -4 15 -1 -2 31 -12 24 -14 25 -19
7z"/>
<path d="M3110 481 c0 -6 4 -13 10 -16 6 -3 7 1 4 9 -7 18 -14 21 -14 7z"/>
<path d="M3730 476 c0 -8 4 -17 9 -20 5 -4 7 3 4 14 -6 23 -13 26 -13 6z"/>
<path d="M4639 483 c-1 -5 -2 -15 -3 -23 0 -8 -7 -14 -15 -12 -8 2 -18 -3 -22
-10 -16 -25 -9 -29 19 -10 15 10 34 17 42 14 11 -4 10 -1 -3 12 -9 10 -15 22
-12 27 4 5 4 9 1 9 -3 0 -7 -3 -7 -7z"/>
<path d="M5042 474 c-11 -12 -10 -14 5 -14 17 -1 17 -1 0 -11 -9 -5 -22 -7
-27 -4 -6 3 -10 2 -10 -4 0 -6 -7 -8 -15 -5 -9 4 -15 0 -15 -10 0 -19 4 -19
28 -7 26 14 56 24 65 22 5 -1 6 3 3 8 -3 5 1 12 10 15 8 3 12 11 8 17 -4 8
-10 6 -17 -7 -9 -16 -11 -16 -16 -2 -5 14 -8 14 -19 2z"/>
<path d="M5376 473 c-6 -14 -5 -15 5 -6 7 7 10 15 7 18 -3 3 -9 -2 -12 -12z"/>
<path d="M410 456 c0 -18 5 -26 18 -26 13 0 14 2 3 9 -7 5 -11 13 -7 19 3 6 2
13 -4 17 -6 4 -10 -5 -10 -19z"/>
<path d="M530 480 c-1 -3 -3 -19 -4 -36 -2 -28 0 -30 16 -21 9 6 13 14 9 17
-5 3 -11 14 -14 25 -2 11 -6 18 -7 15z"/>
<path d="M614 456 c1 -29 21 -42 30 -20 3 9 2 12 -5 9 -6 -4 -9 0 -7 10 2 10
-2 20 -8 22 -7 2 -11 -6 -10 -21z"/>
<path d="M990 471 c0 -5 7 -12 16 -15 14 -5 15 -4 4 9 -14 17 -20 19 -20 6z"/>
<path d="M1276 467 c5 -13 2 -16 -10 -11 -10 4 -16 1 -16 -9 0 -8 6 -17 14
-20 17 -7 30 33 15 48 -7 7 -8 4 -3 -8z"/>
<path d="M4740 463 c0 -12 -6 -23 -12 -26 -7 -3 -4 -5 8 -4 13 1 20 7 19 19
-2 26 -15 35 -15 11z"/>
<path d="M5234 454 c-34 -34 -54 -40 -54 -18 0 8 4 13 8 10 5 -3 9 1 9 9 0 11
-4 12 -14 4 -7 -6 -13 -20 -13 -29 0 -15 7 -18 33 -16 17 1 30 5 27 8 -3 3 1
13 9 22 11 13 16 14 22 4 11 -18 18 -7 10 16 -7 17 -9 16 -37 -10z"/>
<path d="M3091 457 c0 -10 6 -25 14 -33 13 -14 15 -13 15 6 0 12 -4 19 -9 15
-5 -3 -12 3 -14 12 -4 17 -5 17 -6 0z"/>
<path d="M3769 454 c-10 -12 -10 -15 2 -12 9 2 13 -4 11 -14 -2 -10 2 -18 8
-18 6 0 9 4 5 9 -3 5 3 12 12 14 17 4 17 5 0 6 -10 0 -16 5 -12 10 10 17 -12
21 -26 5z"/>
<path d="M4350 455 c0 -8 5 -15 10 -15 6 0 10 7 10 15 0 8 -4 15 -10 15 -5 0
-10 -7 -10 -15z"/>
<path d="M4804 458 c-3 -4 1 -8 10 -8 8 0 16 -5 18 -12 2 -6 9 -8 16 -4 6 3 9
12 6 19 -5 14 -43 17 -50 5z"/>
<path d="M5152 450 c0 -14 2 -19 5 -12 2 6 2 18 0 25 -3 6 -5 1 -5 -13z"/>
<path d="M2624 446 c-10 -27 2 -43 14 -19 8 14 9 24 2 28 -6 3 -13 -1 -16 -9z"/>
<path d="M665 439 c-4 -6 -5 -12 -2 -15 2 -3 7 2 10 11 7 17 1 20 -8 4z"/>
<path d="M1927 443 c-3 -5 -2 -15 2 -22 5 -7 11 -9 14 -4 3 5 2 15 -2 22 -5 7
-11 9 -14 4z"/>
<path d="M2245 440 c-16 -7 -17 -9 -3 -9 9 -1 20 4 23 9 7 11 7 11 -20 0z"/>
<path d="M3270 441 c0 -18 18 -21 30 -6 10 13 9 15 -9 15 -11 0 -21 -4 -21 -9z"/>
<path d="M3536 441 c-3 -5 1 -11 9 -15 8 -3 15 -1 15 4 0 13 -18 22 -24 11z"/>
<path d="M4044 428 c0 -10 4 -18 8 -18 4 0 8 5 8 11 0 5 5 7 12 3 6 -4 8 -3 4
4 -3 5 0 12 6 15 7 2 2 4 -12 3 -17 -1 -26 -7 -26 -18z"/>
<path d="M4938 441 c8 -5 13 -11 13 -15 -3 -18 0 -20 9 -6 14 22 12 26 -12 27
-16 2 -19 0 -10 -6z"/>
<path d="M855 424 c13 -14 19 -14 28 -4 9 10 9 11 0 6 -7 -4 -13 -2 -13 3 0 6
-7 11 -16 11 -14 0 -14 -2 1 -16z"/>
<path d="M1013 425 c0 -8 4 -15 9 -15 4 0 8 4 8 9 0 6 -4 12 -8 15 -5 3 -9 -1
-9 -9z"/>
<path d="M2769 417 c7 -7 14 -8 21 -1 6 6 2 10 -12 11 -16 2 -18 -1 -9 -10z"/>
<path d="M790 390 c0 -11 4 -20 9 -20 5 0 7 9 4 20 -3 11 -7 20 -9 20 -2 0 -4
-9 -4 -20z"/>
<path d="M2905 380 c-4 -6 -17 -9 -30 -6 -15 4 -28 0 -36 -11 -13 -15 -12 -15
6 -5 16 8 24 7 39 -6 11 -9 16 -12 13 -5 -5 7 1 13 13 15 14 2 17 7 11 17 -6
10 -10 10 -16 1z"/>
</g>
</svg>
